<?xml version="1.0" encoding="UTF-8"?>
<svg id="Layer_2" data-name="Layer 2" xmlns="http://www.w3.org/2000/svg" viewBox="0 0 520.55 109.3">
  <defs>
    <style>
      .cls-1, .cls-2 {
        stroke-width: 0px;
      }

      .cls-2 {
        fill: #4279c1;
      }
    </style>
  </defs>
  <g id="Layer_1-2" data-name="Layer 1">
    <g>
      <path class="cls-1" d="m67.95,66.85c3.49,4.41,5.24,9.46,5.24,15.16,0,5.15-1.26,9.67-3.79,13.58-2.53,3.91-6.18,6.96-10.96,9.17-4.78,2.21-10.43,3.31-16.95,3.31H0V11.85h39.69c6.52,0,12.15,1.06,16.88,3.17,4.73,2.11,8.31,5.05,10.75,8.82,2.43,3.77,3.65,8.04,3.65,12.82,0,5.61-1.49,10.29-4.48,14.06-2.99,3.77-6.96,6.43-11.92,7.99,5.42,1.01,9.88,3.72,13.37,8.13Zm-48.65-15.3h17.64c4.59,0,8.13-1.03,10.61-3.1,2.48-2.07,3.72-5.03,3.72-8.89s-1.24-6.84-3.72-8.96c-2.48-2.11-6.02-3.17-10.61-3.17h-17.64v24.12Zm30.39,37.49c2.62-2.21,3.93-5.33,3.93-9.37s-1.38-7.37-4.13-9.72c-2.76-2.34-6.48-3.51-11.16-3.51h-19.02v25.91h19.43c4.69,0,8.34-1.1,10.96-3.31Z"/>
      <path class="cls-1" d="m106.07,6.06v101.99h-19.3V6.06h19.3Z"/>
      <path class="cls-1" d="m123.63,19.36c-2.25-2.16-3.38-4.85-3.38-8.06s1.12-5.9,3.38-8.06c2.25-2.16,5.08-3.24,8.48-3.24s6.22,1.08,8.48,3.24c2.25,2.16,3.38,4.85,3.38,8.06s-1.13,5.9-3.38,8.06c-2.25,2.16-5.08,3.24-8.48,3.24s-6.23-1.08-8.48-3.24Zm17.99,12.34v76.36h-19.3V31.7h19.3Z"/>
      <path class="cls-1" d="m222.18,39.21c5.6,5.74,8.41,13.76,8.41,24.05v44.79h-19.3v-42.17c0-6.06-1.52-10.73-4.55-13.99-3.03-3.26-7.17-4.89-12.4-4.89s-9.53,1.63-12.61,4.89c-3.08,3.26-4.62,7.93-4.62,13.99v42.17h-19.29V31.7h19.29v9.51c2.57-3.31,5.86-5.9,9.86-7.79,4-1.88,8.38-2.83,13.16-2.83,9.1,0,16.45,2.87,22.05,8.61Z"/>
      <path class="cls-1" d="m246.32,49.07c3.08-5.97,7.28-10.57,12.61-13.78,5.33-3.22,11.25-4.82,17.78-4.82,4.96,0,9.69,1.08,14.2,3.24,4.5,2.16,8.08,5.03,10.75,8.61V6.06h19.57v101.99h-19.57v-11.3c-2.39,3.77-5.74,6.8-10.06,9.1-4.32,2.3-9.33,3.45-15.02,3.45-6.43,0-12.31-1.65-17.64-4.96-5.33-3.31-9.53-7.97-12.61-13.99-3.08-6.02-4.62-12.93-4.62-20.74s1.54-14.56,4.62-20.54Zm52.72,8.75c-1.84-3.35-4.32-5.93-7.44-7.72-3.12-1.79-6.48-2.69-10.06-2.69s-6.89.87-9.92,2.62c-3.03,1.75-5.49,4.3-7.37,7.65-1.88,3.35-2.83,7.33-2.83,11.92s.94,8.61,2.83,12.06c1.88,3.45,4.36,6.09,7.44,7.93,3.08,1.84,6.36,2.76,9.86,2.76s6.94-.9,10.06-2.69c3.12-1.79,5.6-4.36,7.44-7.72,1.84-3.35,2.76-7.37,2.76-12.06s-.92-8.7-2.76-12.06Z"/>
      <path class="cls-2" d="m340.43,34.73c4.36-7.44,10.29-13.25,17.78-17.44,7.49-4.18,15.69-6.27,24.6-6.27,10.2,0,19.27,2.5,27.22,7.51,7.95,5.01,13.71,12.11,17.3,21.29h-18.88c-2.48-5.05-5.93-8.82-10.34-11.3-4.41-2.48-9.51-3.72-15.3-3.72-6.34,0-11.99,1.43-16.95,4.27-4.96,2.85-8.84,6.94-11.65,12.27-2.8,5.33-4.2,11.53-4.2,18.61s1.4,13.28,4.2,18.61c2.8,5.33,6.68,9.44,11.65,12.34,4.96,2.89,10.61,4.34,16.95,4.34,5.79,0,10.89-1.24,15.3-3.72,4.41-2.48,7.86-6.25,10.34-11.3h18.88c-3.58,9.19-9.35,16.26-17.3,21.23-7.95,4.96-17.02,7.44-27.22,7.44-9.01,0-17.23-2.09-24.67-6.27-7.44-4.18-13.35-9.99-17.71-17.44-4.37-7.44-6.55-15.85-6.55-25.22s2.18-17.78,6.55-25.22Z"/>
      <path class="cls-2" d="m520.55,12.27l-35.97,95.79h-18.19l-36.11-95.79h16.81l28.39,79.66,28.53-79.66h16.54Z"/>
    </g>
  </g>
</svg>